{
	"asset":{
		"generator":"Khronos glTF Blender I/O v4.4.55",
		"version":"2.0"
	},
	"scene":0,
	"scenes":[
		{
			"name":"Scene",
			"nodes":[
				21
			]
		}
	],
	"nodes":[
		{
			"name":"case",
			"scale":[
				1.7999998331069946,
				3.6999998092651367,
				4.299999713897705
			]
		},
		{
			"name":"case-back-plate",
			"rotation":[
				0,
				0.7071066498756409,
				0,
				0.70710688829422
			],
			"scale":[
				4.2032999992370605,
				3.3960824012756348,
				1
			],
			"translation":[
				1.8132368326187134,
				0.29999998211860657,
				0
			]
		},
		{
			"name":"case-motherboard-plate",
			"rotation":[
				0,
				-0.7071066498756409,
				0,
				0.70710688829422
			],
			"scale":[
				1,
				3.1000001430511475,
				1
			],
			"translation":[
				1.5743136405944824,
				0.6003920435905457,
				3.3020007610321045
			]
		},
		{
			"name":"Cube.001",
			"scale":[
				0.020000003278255463,
				0.19999997317790985,
				0.8999999761581421
			],
			"translation":[
				-0.5236897468566895,
				3.9000000953674316,
				0.14851783215999603
			]
		},
		{
			"mesh":0,
			"name":"fan_fan-top_0"
		},
		{
			"children":[
				4
			],
			"name":"fan",
			"rotation":[
				0,
				-0.7071066498756409,
				0,
				0.7071069478988647
			],
			"scale":[
				0.7834442257881165,
				0.7834442257881165,
				0.7834442257881165
			],
			"translation":[
				0.5767582654953003,
				1.5867611169815063,
				2.33420991897583
			]
		},
		{
			"name":"filter",
			"scale":[
				1.7999998331069946,
				3.6999998092651367,
				2.2746667861938477
			],
			"translation":[
				0,
				1.4000002145767212,
				4.284149169921875
			]
		},
		{
			"name":"front",
			"translation":[
				0,
				-0.0010000000474974513,
				0
			]
		},
		{
			"name":"gpu",
			"rotation":[
				0,
				0,
				-0.7071068286895752,
				0.7071067094802856
			],
			"scale":[
				2.114640235900879,
				0.9187199473381042,
				0.27719998359680176
			],
			"translation":[
				0.392126202583313,
				1.5821335315704346,
				0.7615809440612793
			]
		},
		{
			"mesh":1,
			"name":"heatsink_heatsink_0"
		},
		{
			"children":[
				9
			],
			"name":"heatsink",
			"rotation":[
				0,
				-0.7071066498756409,
				0,
				0.70710688829422
			],
			"scale":[
				0.3917221128940582,
				0.3917221128940582,
				0.2742054760456085
			],
			"translation":[
				0.8560631275177002,
				1.5867611169815063,
				2.33420991897583
			]
		},
		{
			"name":"legs",
			"scale":[
				0.30000001192092896,
				0.29999998211860657,
				0.10000000149011612
			],
			"translation":[
				-1.3000000715255737,
				0.30000001192092896,
				-4.400000095367432
			]
		},
		{
			"name":"motherboard",
			"scale":[
				0.050000011920928955,
				2.1600000858306885,
				2.5200002193450928
			],
			"translation":[
				1.5,
				1.4240120649337769,
				1.3292951583862305
			]
		},
		{
			"name":"panel",
			"scale":[
				0.019999999552965164,
				3.6999998092651367,
				4.299999713897705
			],
			"translation":[
				-1.8700000047683716,
				0,
				0
			]
		},
		{
			"name":"psu",
			"translation":[
				0,
				2.1061599254608154,
				-3.2594242095947266
			]
		},
		{
			"name":"psu_cover",
			"scale":[
				1.7999998331069946,
				3.6999998092651367,
				1
			],
			"translation":[
				0,
				0,
				-3.299999952316284
			]
		},
		{
			"name":"ram",
			"rotation":[
				0,
				-0.7071066498756409,
				0,
				0.70710688829422
			],
			"scale":[
				0.9945517182350159,
				0.9945517182350159,
				0.9945517778396606
			],
			"translation":[
				1.223633885383606,
				0.5439047813415527,
				2.368337392807007
			]
		},
		{
			"name":"ram.001",
			"rotation":[
				0,
				-0.7071066498756409,
				0,
				0.70710688829422
			],
			"scale":[
				0.9945517182350159,
				0.9945517182350159,
				0.9945517778396606
			],
			"translation":[
				1.223633885383606,
				0.2067786604166031,
				2.368337392807007
			]
		},
		{
			"children":[
				0,
				1,
				2,
				3,
				5,
				6,
				7,
				8,
				10,
				11,
				12,
				13,
				14,
				15,
				16,
				17
			],
			"name":"pc",
			"rotation":[
				-0.70710688829422,
				0,
				0,
				0.7071066498756409
			],
			"scale":[
				100,
				100,
				100
			]
		},
		{
			"children":[
				18
			],
			"name":"RootNode"
		},
		{
			"children":[
				19
			],
			"name":"a073c94a58b24826b73804894c63642d.fbx",
			"rotation":[
				0.70710688829422,
				0,
				0,
				0.7071066498756409
			],
			"scale":[
				0.009999999776482582,
				0.009999999776482582,
				0.009999999776482582
			]
		},
		{
			"children":[
				20
			],
			"name":"Sketchfab_model",
			"rotation":[
				-0.70710688829422,
				0,
				0,
				0.7071066498756409
			],
			"scale":[
				0.15392278134822845,
				0.15392279624938965,
				0.15392279624938965
			]
		}
	],
	"materials":[
		{
			"alphaCutoff":0.5775255560874939,
			"alphaMode":"MASK",
			"doubleSided":true,
			"name":"fan-top",
			"pbrMetallicRoughness":{
				"baseColorTexture":{
					"index":0
				},
				"metallicFactor":0,
				"roughnessFactor":0.8211145401000977
			}
		},
		{
			"doubleSided":true,
			"name":"heatsink",
			"pbrMetallicRoughness":{
				"baseColorFactor":[
					0.10576300323009491,
					0.10576300323009491,
					0.10576300323009491,
					1
				],
				"metallicFactor":0,
				"roughnessFactor":0.9694966077804565
			}
		}
	],
	"meshes":[
		{
			"name":"fan_fan-top_0",
			"primitives":[
				{
					"attributes":{
						"POSITION":0,
						"NORMAL":1,
						"TEXCOORD_0":2
					},
					"indices":3,
					"material":0
				}
			]
		},
		{
			"name":"heatsink_heatsink_0",
			"primitives":[
				{
					"attributes":{
						"POSITION":4,
						"NORMAL":5,
						"TEXCOORD_0":6
					},
					"indices":7,
					"material":1
				}
			]
		}
	],
	"textures":[
		{
			"sampler":0,
			"source":0
		}
	],
	"images":[
		{
			"mimeType":"image/png",
			"name":"fan-top_baseColor",
			"uri":"fan-top_baseColor.png"
		}
	],
	"accessors":[
		{
			"bufferView":0,
			"componentType":5126,
			"count":192,
			"max":[
				1,
				1,
				0.08031658828258514
			],
			"min":[
				-1,
				-1,
				0
			],
			"type":"VEC3"
		},
		{
			"bufferView":1,
			"componentType":5126,
			"count":192,
			"type":"VEC3"
		},
		{
			"bufferView":2,
			"componentType":5126,
			"count":192,
			"type":"VEC2"
		},
		{
			"bufferView":3,
			"componentType":5123,
			"count":372,
			"type":"SCALAR"
		},
		{
			"bufferView":4,
			"componentType":5126,
			"count":1666,
			"max":[
				1.9976496696472168,
				1.997650146484375,
				1
			],
			"min":[
				-1.9976506233215332,
				-1.997650146484375,
				-1.11803138256073
			],
			"type":"VEC3"
		},
		{
			"bufferView":5,
			"componentType":5126,
			"count":1666,
			"type":"VEC3"
		},
		{
			"bufferView":6,
			"componentType":5126,
			"count":1666,
			"type":"VEC2"
		},
		{
			"bufferView":7,
			"componentType":5123,
			"count":2676,
			"type":"SCALAR"
		}
	],
	"bufferViews":[
		{
			"buffer":0,
			"byteLength":2304,
			"byteOffset":0,
			"target":34962
		},
		{
			"buffer":0,
			"byteLength":2304,
			"byteOffset":2304,
			"target":34962
		},
		{
			"buffer":0,
			"byteLength":1536,
			"byteOffset":4608,
			"target":34962
		},
		{
			"buffer":0,
			"byteLength":744,
			"byteOffset":6144,
			"target":34963
		},
		{
			"buffer":0,
			"byteLength":19992,
			"byteOffset":6888,
			"target":34962
		},
		{
			"buffer":0,
			"byteLength":19992,
			"byteOffset":26880,
			"target":34962
		},
		{
			"buffer":0,
			"byteLength":13328,
			"byteOffset":46872,
			"target":34962
		},
		{
			"buffer":0,
			"byteLength":5352,
			"byteOffset":60200,
			"target":34963
		}
	],
	"samplers":[
		{
			"magFilter":9729,
			"minFilter":9987
		}
	],
	"buffers":[
		{
			"byteLength":65552,
			"uri":"scene.bin"
		}
	]
}
